<svg width="18" height="18" viewBox="0 0 18 18" fill="none" xmlns="http://www.w3.org/2000/svg">
<path d="M6.75758 15.9376C6.61508 15.9376 6.47258 15.8851 6.36008 15.7726L2.60258 12.0151C2.38508 11.7976 2.38508 11.4376 2.60258 11.2201C2.82008 11.0026 3.18008 11.0026 3.39758 11.2201L7.15508 14.9776C7.37258 15.1951 7.37258 15.5551 7.15508 15.7726C7.04258 15.8776 6.90008 15.9376 6.75758 15.9376Z" fill="#746E87"/>
<path d="M6.75757 15.9375C6.45007 15.9375 6.19507 15.6825 6.19507 15.375V2.625C6.19507 2.3175 6.45007 2.0625 6.75757 2.0625C7.06507 2.0625 7.32007 2.3175 7.32007 2.625V15.375C7.32007 15.6825 7.06507 15.9375 6.75757 15.9375Z" fill="#746E87"/>
<path d="M15.0076 6.94496C14.8651 6.94496 14.7226 6.89246 14.6101 6.77996L10.8526 3.02246C10.6351 2.80496 10.6351 2.44496 10.8526 2.22746C11.0701 2.00996 11.4301 2.00996 11.6476 2.22746L15.4051 5.98496C15.6226 6.20246 15.6226 6.56246 15.4051 6.77996C15.2926 6.89246 15.1501 6.94496 15.0076 6.94496Z" fill="#746E87"/>
<path d="M11.2424 15.9375C10.9349 15.9375 10.6799 15.6825 10.6799 15.375V2.625C10.6799 2.3175 10.9349 2.0625 11.2424 2.0625C11.5499 2.0625 11.8049 2.3175 11.8049 2.625V15.375C11.8049 15.6825 11.5574 15.9375 11.2424 15.9375Z" fill="#746E87"/>
</svg>
