<svg width="127" height="19" viewBox="0 0 127 19" fill="none" xmlns="http://www.w3.org/2000/svg">
<path d="M126 1C105.692 1.46033 104.434 12.4808 84.3333 13.75C67.758 14.7966 59.3648 8.85554 42.6667 9.5C24.555 10.199 18.7593 16.3898 1 18H126V1Z" fill="#ECFDF3"/>
<path d="M126 1C105.692 1.46033 104.434 12.4808 84.3333 13.75C67.758 14.7966 59.3648 8.85554 42.6667 9.5C24.555 10.199 18.7593 16.3898 1 18H126V1Z" fill="url(#paint0_linear_1996_14866)"/>
<path d="M1 18C18.7593 16.3898 24.555 10.199 42.6667 9.5C59.3648 8.85554 67.758 14.7966 84.3333 13.75C104.434 12.4808 105.692 1.46033 126 1" stroke="#34C759" stroke-width="2" stroke-linecap="round" stroke-linejoin="round"/>
<defs>
<linearGradient id="paint0_linear_1996_14866" x1="63.5" y1="1" x2="63.5" y2="18" gradientUnits="userSpaceOnUse">
<stop offset="0.641167" stop-color="white" stop-opacity="0"/>
<stop offset="1" stop-color="white"/>
</linearGradient>
</defs>
</svg>
