<svg width="21" height="20" viewBox="0 0 21 20" fill="none" xmlns="http://www.w3.org/2000/svg">
<path d="M18.7083 18.9584H2.04166C1.69999 18.9584 1.41666 18.675 1.41666 18.3334C1.41666 17.9917 1.69999 17.7084 2.04166 17.7084H18.7083C19.05 17.7084 19.3333 17.9917 19.3333 18.3334C19.3333 18.675 19.05 18.9584 18.7083 18.9584Z" fill="#130442"/>
<path d="M12.25 18.9583H8.5C8.15833 18.9583 7.875 18.675 7.875 18.3333V3.33329C7.875 1.89996 8.66667 1.04163 10 1.04163H10.75C12.0833 1.04163 12.875 1.89996 12.875 3.33329V18.3333C12.875 18.675 12.5917 18.9583 12.25 18.9583ZM9.125 17.7083H11.625V3.33329C11.625 2.37496 11.175 2.29163 10.75 2.29163H10C9.575 2.29163 9.125 2.37496 9.125 3.33329V17.7083V17.7083Z" fill="#130442"/>
<path d="M6.20833 18.9583H2.875C2.53333 18.9583 2.25 18.675 2.25 18.3333V8.33329C2.25 6.89996 2.98333 6.04163 4.20833 6.04163H4.875C6.1 6.04163 6.83333 6.89996 6.83333 8.33329V18.3333C6.83333 18.675 6.55 18.9583 6.20833 18.9583ZM3.5 17.7083H5.58333V8.33329C5.58333 7.29163 5.125 7.29163 4.875 7.29163H4.20833C3.95833 7.29163 3.5 7.29163 3.5 8.33329V17.7083V17.7083Z" fill="#130442"/>
<path d="M17.875 18.9584H14.5417C14.2 18.9584 13.9167 18.675 13.9167 18.3334V12.5C13.9167 11.0667 14.65 10.2084 15.875 10.2084H16.5417C17.7667 10.2084 18.5 11.0667 18.5 12.5V18.3334C18.5 18.675 18.2167 18.9584 17.875 18.9584ZM15.1667 17.7084H17.25V12.5C17.25 11.4584 16.7917 11.4584 16.5417 11.4584H15.875C15.625 11.4584 15.1667 11.4584 15.1667 12.5V17.7084V17.7084Z" fill="#130442"/>
</svg>
