<svg width="200" height="200" viewBox="0 0 200 200" fill="none" xmlns="http://www.w3.org/2000/svg">
<g filter="url(#filter0_f_1458_82167)">
<circle cx="100" cy="100" r="20" fill="#130442" fill-opacity="0.6"/>
</g>
<g clip-path="url(#clip0_1458_82167)">
<path d="M66.2527 92.496H132.727C134.626 92.496 136.172 90.9496 136.172 89.0509V53.4451C136.192 51.5464 134.646 50 132.727 50H66.2527C64.354 50 62.8076 51.5464 62.8076 53.4451V89.0509C62.8076 90.9496 64.354 92.496 66.2527 92.496Z" fill="#130442"/>
<path d="M85.318 69.1438V72.0604C85.318 72.3149 85.3963 72.5106 85.5334 72.6476C85.6704 72.8042 85.8466 72.863 86.0815 72.863H87.1776V73.92H86.0423C85.4551 73.92 85.0049 73.7438 84.6721 73.4111C84.3393 73.0783 84.1632 72.6281 84.1632 72.0408V69.1438H83.2432V68.1064H84.1632V66.5796H85.318V68.1064H87.1776V69.1438H85.318Z" fill="white"/>
<path d="M87.8433 66.5601H88.9786V67.6562H87.8433V66.5601ZM87.8433 68.0869H88.9786V73.92H87.8433V68.0869Z" fill="white"/>
<path d="M91.0923 70.3966L93.3434 68.0869H94.8702L92.6387 70.3771L95.1638 73.92H93.774L91.8557 71.1796L91.0923 71.943V73.92H89.957V66.5601H91.0923V70.3966Z" fill="white"/>
<path d="M97.1213 69.1438V72.0604C97.1213 72.3149 97.1996 72.5106 97.3366 72.6476C97.4736 72.8042 97.6498 72.863 97.8847 72.863H98.9808V73.92H97.8455C97.2583 73.92 96.8081 73.7438 96.4753 73.4111C96.1426 73.0783 95.9664 72.6281 95.9664 72.0408V69.1438H95.0464V68.1064H95.9664V66.5796H97.1213V68.1064H98.9808V69.1438H97.1213Z" fill="white"/>
<path d="M105.147 68.0866V73.3913V73.9198H104.325H104.11V73.7045V73.3913V73.0977C103.601 73.7045 102.994 74.0177 102.27 74.0177C101.448 74.0177 100.782 73.7436 100.293 73.1956C99.8033 72.6475 99.5684 71.9232 99.5684 71.0228C99.5684 70.0637 99.8033 69.3198 100.273 68.7913C100.743 68.2432 101.408 67.9888 102.27 67.9888C102.974 67.9888 103.562 68.2237 104.031 68.6934V68.0866H105.147ZM104.012 70.9445C104.012 70.3377 103.855 69.8483 103.562 69.496C103.248 69.1632 102.837 68.9871 102.328 68.9871C101.819 68.9871 101.408 69.1632 101.134 69.5156C100.86 69.8875 100.723 70.3768 100.723 71.0032C100.723 71.61 100.86 72.0994 101.154 72.4517C101.447 72.8236 101.839 72.9998 102.367 72.9998C102.876 72.9998 103.287 72.8236 103.581 72.4909C103.875 72.1385 104.012 71.6492 104.012 71.0228V70.9445Z" fill="white"/>
<path d="M110.902 68.7718C111.372 69.3199 111.607 70.0441 111.607 70.9641C111.607 71.9037 111.372 72.6475 110.882 73.1956C110.413 73.7437 109.727 73.9982 108.866 73.9982C108.181 73.9982 107.613 73.7828 107.144 73.3326V75.8186H106.008V68.5956V68.0671H106.83H107.046V68.2824V68.5956V68.8892C107.535 68.2629 108.181 67.9692 108.925 67.9692C109.786 67.9692 110.432 68.2433 110.902 68.7718ZM110.041 72.4713C110.334 72.119 110.471 71.6296 110.471 71.0033C110.471 70.3769 110.334 69.8875 110.06 69.5352C109.786 69.1633 109.395 68.9871 108.866 68.9871C108.357 68.9871 107.946 69.1633 107.633 69.496C107.339 69.8092 107.183 70.2986 107.163 70.925V71.062C107.163 71.7079 107.3 72.1973 107.594 72.5301C107.887 72.8628 108.299 73.039 108.827 73.039C109.336 72.9999 109.747 72.8237 110.041 72.4713Z" fill="white"/>
<path d="M112.39 67.2061L111.705 67.8129C112.429 68.6154 112.879 69.6724 112.879 70.8273C112.879 71.9822 112.429 73.0588 111.705 73.8418L112.39 74.4486C113.271 73.4894 113.799 72.2171 113.799 70.8077C113.779 69.4571 113.251 68.1652 112.39 67.2061Z" fill="#6220C9"/>
<path d="M113.779 65.9531L113.094 66.5599C114.151 67.6757 114.817 69.1829 114.817 70.8467C114.817 72.5105 114.171 74.0178 113.094 75.1335L113.779 75.7403C114.993 74.468 115.737 72.7259 115.737 70.8467C115.737 68.948 114.993 67.2255 113.779 65.9531Z" fill="#6220C9"/>
</g>
<path d="M119.973 81.4426H93.6863C92.9897 81.4426 92.2998 81.5798 91.6562 81.8464C91.0125 82.113 90.4277 82.5038 89.9351 82.9964C89.4425 83.489 89.0517 84.0738 88.7851 84.7175C88.5185 85.3611 88.3813 86.0509 88.3813 86.7476V144.695C88.3813 145.392 88.5186 146.081 88.7852 146.725C89.0518 147.369 89.4425 147.954 89.9351 148.446C90.4278 148.939 91.0126 149.33 91.6562 149.596C92.2998 149.863 92.9897 150 93.6863 150H119.973C121.38 150 122.729 149.441 123.724 148.446C124.719 147.451 125.278 146.102 125.278 144.695V86.7478C125.278 86.0511 125.14 85.3612 124.874 84.7176C124.607 84.0739 124.216 83.4891 123.724 82.9965C123.231 82.5038 122.646 82.1131 122.003 81.8465C121.359 81.5798 120.669 81.4426 119.973 81.4426ZM110.854 87.517H102.805C102.465 87.517 102.138 87.3819 101.898 87.1413C101.657 86.9007 101.522 86.5744 101.522 86.2341C101.522 85.8938 101.657 85.5675 101.898 85.3269C102.138 85.0863 102.465 84.9512 102.805 84.9512H110.854C111.194 84.9512 111.521 85.0863 111.761 85.3269C112.002 85.5675 112.137 85.8938 112.137 86.2341C112.137 86.5744 112.002 86.9007 111.761 87.1413C111.521 87.3819 111.194 87.517 110.854 87.517Z" fill="#F5F5F5"/>
<path d="M110.854 87.517H102.805C102.465 87.517 102.138 87.3819 101.898 87.1413C101.657 86.9007 101.522 86.5744 101.522 86.2341C101.522 85.8938 101.657 85.5675 101.898 85.3269C102.138 85.0863 102.465 84.9512 102.805 84.9512H110.854C111.194 84.9512 111.521 85.0863 111.761 85.3269C112.002 85.5675 112.137 85.8938 112.137 86.2341C112.137 86.5744 112.002 86.9007 111.761 87.1413C111.521 87.3819 111.194 87.517 110.854 87.517Z" fill="#130442"/>
<path d="M93.6863 81.9072H93.6863H119.973C120.608 81.9072 121.238 82.0324 121.825 82.2757L122.003 81.8465L121.825 82.2757C122.412 82.5189 122.946 82.8755 123.395 83.325C123.845 83.7745 124.201 84.3081 124.445 84.8954C124.688 85.4826 124.813 86.1121 124.813 86.7478V144.695C124.813 145.979 124.303 147.21 123.395 148.118C122.487 149.025 121.256 149.535 119.973 149.535H93.6863C93.0507 149.535 92.4213 149.41 91.834 149.167C91.2467 148.924 90.7131 148.567 90.2637 148.118C89.8142 147.668 89.4576 147.135 89.2144 146.547C88.9711 145.96 88.8459 145.331 88.8459 144.695V86.7476V86.7476C88.8459 86.1119 88.9711 85.4825 89.2144 84.8952C89.4576 84.308 89.8141 83.7744 90.2636 83.3249C90.7131 82.8754 91.2467 82.5189 91.834 82.2756C92.4212 82.0324 93.0507 81.9072 93.6863 81.9072ZM101.569 84.9984L101.898 85.3269L101.569 84.9984C101.241 85.3261 101.057 85.7706 101.057 86.2341C101.057 86.6976 101.241 87.1421 101.569 87.4698C101.897 87.7975 102.341 87.9816 102.805 87.9816H110.854C111.318 87.9816 111.762 87.7975 112.09 87.4698C112.417 87.1421 112.602 86.6976 112.602 86.2341C112.602 85.7706 112.417 85.3261 112.09 84.9984C111.762 84.6707 111.318 84.4866 110.854 84.4866H102.805C102.341 84.4866 101.897 84.6707 101.569 84.9984ZM102.805 87.0525C102.588 87.0525 102.38 86.9662 102.226 86.8128C102.073 86.6593 101.987 86.4511 101.987 86.2341C101.987 86.0171 102.073 85.8089 102.226 85.6554C102.38 85.502 102.588 85.4157 102.805 85.4157H110.854C111.071 85.4157 111.279 85.502 111.433 85.6554C111.586 85.8089 111.672 86.0171 111.672 86.2341C111.672 86.4511 111.586 86.6593 111.433 86.8128C111.279 86.9662 111.071 87.0525 110.854 87.0525H102.805Z" stroke="#130442" stroke-width="0.92918" stroke-linecap="round"/>
<defs>
<filter id="filter0_f_1458_82167" x="0" y="0" width="200" height="200" filterUnits="userSpaceOnUse" color-interpolation-filters="sRGB">
<feFlood flood-opacity="0" result="BackgroundImageFix"/>
<feBlend mode="normal" in="SourceGraphic" in2="BackgroundImageFix" result="shape"/>
<feGaussianBlur stdDeviation="40" result="effect1_foregroundBlur_1458_82167"/>
</filter>
<clipPath id="clip0_1458_82167">
<rect width="73.3844" height="42.496" fill="white" transform="translate(62.8076 50)"/>
</clipPath>
</defs>
</svg>
