<svg width="21" height="20" viewBox="0 0 21 20" fill="none" xmlns="http://www.w3.org/2000/svg">
<path d="M15.6249 6.59172C15.5999 6.59172 15.5832 6.59172 15.5582 6.59172H15.5165C13.9415 6.54172 12.7665 5.32505 12.7665 3.82505C12.7665 2.29172 14.0165 1.05005 15.5415 1.05005C17.0665 1.05005 18.3165 2.30005 18.3165 3.82505C18.3082 5.33338 17.1332 6.55005 15.6332 6.60005C15.6332 6.59172 15.6332 6.59172 15.6249 6.59172ZM15.5415 2.29172C14.6999 2.29172 14.0165 2.97505 14.0165 3.81672C14.0165 4.64172 14.6582 5.30839 15.4832 5.34172C15.4915 5.33339 15.5582 5.33339 15.6332 5.34172C16.4415 5.30006 17.0665 4.63339 17.0749 3.81672C17.0749 2.97505 16.3915 2.29172 15.5415 2.29172Z" fill="#130442"/>
<path d="M15.6333 12.7334C15.3083 12.7334 14.9833 12.7084 14.6583 12.65C14.3166 12.5917 14.0916 12.2667 14.15 11.925C14.2083 11.5834 14.5333 11.3584 14.875 11.4167C15.9 11.5917 16.9833 11.4 17.7083 10.9167C18.1 10.6584 18.3083 10.3334 18.3083 10.0084C18.3083 9.68337 18.0916 9.3667 17.7083 9.10837C16.9833 8.62504 15.8833 8.43337 14.85 8.61671C14.5083 8.68337 14.1833 8.45004 14.125 8.10837C14.0666 7.76671 14.2916 7.44171 14.6333 7.38338C15.9916 7.14171 17.4 7.40004 18.4 8.0667C19.1333 8.55837 19.5583 9.25837 19.5583 10.0084C19.5583 10.75 19.1416 11.4584 18.4 11.9584C17.6416 12.4584 16.6583 12.7334 15.6333 12.7334Z" fill="#130442"/>
<path d="M5.59996 6.59163C5.59163 6.59163 5.5833 6.59163 5.5833 6.59163C4.0833 6.54163 2.9083 5.32496 2.89996 3.82496C2.89996 2.29162 4.14996 1.04163 5.67496 1.04163C7.19997 1.04163 8.44996 2.29163 8.44996 3.81663C8.44996 5.32496 7.27496 6.54163 5.77496 6.59163L5.59996 5.96663L5.6583 6.59163C5.64163 6.59163 5.61663 6.59163 5.59996 6.59163ZM5.6833 5.34163C5.7333 5.34163 5.77497 5.34162 5.82497 5.34996C6.56663 5.31662 7.21663 4.64996 7.21663 3.82496C7.21663 2.98329 6.5333 2.29995 5.69163 2.29995C4.84997 2.29995 4.16663 2.98329 4.16663 3.82496C4.16663 4.64162 4.79996 5.29996 5.6083 5.34996C5.61663 5.34162 5.64996 5.34163 5.6833 5.34163Z" fill="#130442"/>
<path d="M5.59169 12.7334C4.56669 12.7334 3.58335 12.4584 2.82502 11.9584C2.09169 11.4667 1.66669 10.7584 1.66669 10.0084C1.66669 9.26671 2.09169 8.55837 2.82502 8.0667C3.82502 7.40004 5.23335 7.14171 6.59169 7.38338C6.93335 7.44171 7.15835 7.76671 7.10002 8.10837C7.04169 8.45004 6.71669 8.68337 6.37502 8.61671C5.34169 8.43337 4.25002 8.62504 3.51669 9.10837C3.12502 9.3667 2.91669 9.68337 2.91669 10.0084C2.91669 10.3334 3.13335 10.6584 3.51669 10.9167C4.24169 11.4 5.32502 11.5917 6.35002 11.4167C6.69169 11.3584 7.01669 11.5917 7.07502 11.925C7.13336 12.2667 6.90835 12.5917 6.56669 12.65C6.24169 12.7084 5.91669 12.7334 5.59169 12.7334Z" fill="#130442"/>
<path d="M10.6249 12.8167C10.5999 12.8167 10.5832 12.8167 10.5582 12.8167H10.5165C8.94154 12.7667 7.76654 11.55 7.76654 10.05C7.76654 8.51669 9.01654 7.27502 10.5415 7.27502C12.0665 7.27502 13.3165 8.52503 13.3165 10.05C13.3082 11.5584 12.1332 12.775 10.6332 12.825C10.6332 12.8167 10.6332 12.8167 10.6249 12.8167ZM10.5415 8.5167C9.69988 8.5167 9.01654 9.20003 9.01654 10.0417C9.01654 10.8667 9.65821 11.5334 10.4832 11.5667C10.4915 11.5584 10.5582 11.5584 10.6332 11.5667C11.4415 11.525 12.0665 10.8584 12.0749 10.0417C12.0749 9.20836 11.3915 8.5167 10.5415 8.5167Z" fill="#130442"/>
<path d="M10.6248 18.9666C9.6248 18.9666 8.6248 18.7083 7.8498 18.1833C7.11647 17.6916 6.69147 16.9916 6.69147 16.2416C6.69147 15.4999 7.10813 14.7833 7.8498 14.2916C9.40813 13.2583 11.8498 13.2583 13.3998 14.2916C14.1331 14.7833 14.5581 15.4833 14.5581 16.2333C14.5581 16.9749 14.1415 17.6916 13.3998 18.1833C12.6248 18.6999 11.6248 18.9666 10.6248 18.9666ZM8.54147 15.3416C8.1498 15.5999 7.94147 15.9249 7.94147 16.2499C7.94147 16.5749 8.15813 16.8916 8.54147 17.1499C9.66647 17.9083 11.5748 17.9083 12.6998 17.1499C13.0915 16.8916 13.2998 16.5666 13.2998 16.2416C13.2998 15.9166 13.0831 15.5999 12.6998 15.3416C11.5831 14.5833 9.6748 14.5916 8.54147 15.3416Z" fill="#130442"/>
</svg>
