<svg width="12" height="13" viewBox="0 0 12 13" fill="none" xmlns="http://www.w3.org/2000/svg">
<path d="M9.45047 2.73697C8.48047 1.76697 7.53047 1.74197 6.53547 2.73697L5.93047 3.34197C5.88047 3.39197 5.86047 3.47197 5.88047 3.54197C6.26047 4.86697 7.32047 5.92697 8.64547 6.30697C8.66547 6.31197 8.68547 6.31697 8.70547 6.31697C8.76047 6.31697 8.81047 6.29697 8.85047 6.25697L9.45047 5.65197C9.94547 5.16197 10.1855 4.68697 10.1855 4.20697C10.1905 3.71197 9.95047 3.23197 9.45047 2.73697Z" fill="#746E87"/>
<path d="M7.74559 6.76237C7.60059 6.69237 7.46059 6.62237 7.32559 6.54237C7.21559 6.47737 7.11059 6.40737 7.00559 6.33237C6.92059 6.27737 6.82059 6.19737 6.72559 6.11737C6.71559 6.11237 6.68059 6.08237 6.64059 6.04237C6.47559 5.90237 6.29059 5.72237 6.12559 5.52237C6.11059 5.51237 6.08559 5.47737 6.05059 5.43237C6.00059 5.37237 5.91559 5.27237 5.84059 5.15737C5.78059 5.08237 5.71059 4.97237 5.64559 4.86237C5.56559 4.72737 5.49559 4.59237 5.42559 4.45237C5.415 4.42967 5.40475 4.40709 5.39481 4.38464C5.32102 4.21798 5.1037 4.16926 4.97482 4.29813L2.11059 7.16237C2.04559 7.22737 1.98559 7.35237 1.97059 7.43737L1.70059 9.35237C1.65059 9.69237 1.74559 10.0124 1.95559 10.2274C2.13559 10.4024 2.38559 10.4974 2.65559 10.4974C2.71559 10.4974 2.77559 10.4924 2.83559 10.4824L4.75559 10.2124C4.84559 10.1974 4.97059 10.1374 5.03059 10.0724L7.89125 7.21171C8.02102 7.08194 7.97206 6.85921 7.80326 6.78718C7.78426 6.77907 7.76505 6.7708 7.74559 6.76237Z" fill="#746E87"/>
</svg>
