<svg width="19" height="18" viewBox="0 0 19 18" fill="none" xmlns="http://www.w3.org/2000/svg">
<path d="M14.9259 3.35536C13.4709 1.90036 12.0459 1.86286 10.5534 3.35536L9.64588 4.26286C9.57088 4.33786 9.54088 4.45786 9.57088 4.56286C10.1409 6.55036 11.7309 8.14036 13.7184 8.71036C13.7484 8.71786 13.7784 8.72536 13.8084 8.72536C13.8909 8.72536 13.9659 8.69536 14.0259 8.63536L14.9259 7.72786C15.6684 6.99286 16.0284 6.28036 16.0284 5.56036C16.0359 4.81786 15.6759 4.09786 14.9259 3.35536Z" fill="#746E87"/>
<path d="M12.3684 9.39284C12.1509 9.28784 11.9409 9.18284 11.7384 9.06284C11.5734 8.96534 11.4159 8.86034 11.2584 8.74784C11.1309 8.66534 10.9809 8.54534 10.8384 8.42534C10.8234 8.41784 10.7709 8.37284 10.7109 8.31284C10.4634 8.10284 10.1859 7.83284 9.93838 7.53284C9.91588 7.51784 9.87838 7.46534 9.82588 7.39784C9.75088 7.30784 9.62338 7.15784 9.51088 6.98534C9.42088 6.87284 9.31588 6.70784 9.21838 6.54284C9.09838 6.34034 8.99338 6.13784 8.88838 5.92784C8.8725 5.89379 8.85712 5.85992 8.84221 5.82624C8.73153 5.57625 8.40555 5.50317 8.21224 5.69648L3.91588 9.99284C3.81838 10.0903 3.72838 10.2778 3.70588 10.4053L3.30088 13.2778C3.22588 13.7878 3.36838 14.2678 3.68338 14.5903C3.95338 14.8528 4.32838 14.9953 4.73338 14.9953C4.82338 14.9953 4.91338 14.9878 5.00338 14.9728L7.88338 14.5678C8.01838 14.5453 8.20588 14.4553 8.29588 14.3578L12.5869 10.0669C12.7815 9.87219 12.7081 9.53809 12.4549 9.43005C12.4264 9.41788 12.3976 9.40549 12.3684 9.39284Z" fill="#746E87"/>
</svg>
