<svg width="16" height="12" viewBox="0 0 16 12" fill="none" xmlns="http://www.w3.org/2000/svg">
<path d="M1.33301 2.6665L6.77629 6.4768C7.21707 6.78535 7.43746 6.93962 7.67718 6.99938C7.88894 7.05216 8.11041 7.05216 8.32217 6.99938C8.56189 6.93962 8.78228 6.78535 9.22306 6.4768L14.6663 2.6665M4.53301 11.3332H11.4663C12.5864 11.3332 13.1465 11.3332 13.5743 11.1152C13.9506 10.9234 14.2566 10.6175 14.4484 10.2412C14.6663 9.81333 14.6663 9.25328 14.6663 8.13317V3.8665C14.6663 2.7464 14.6663 2.18635 14.4484 1.75852C14.2566 1.3822 13.9506 1.07624 13.5743 0.884491C13.1465 0.666504 12.5864 0.666504 11.4663 0.666504H4.53301C3.4129 0.666504 2.85285 0.666504 2.42503 0.884491C2.0487 1.07624 1.74274 1.3822 1.55099 1.75852C1.33301 2.18635 1.33301 2.7464 1.33301 3.8665V8.13317C1.33301 9.25328 1.33301 9.81333 1.55099 10.2412C1.74274 10.6175 2.0487 10.9234 2.42503 11.1152C2.85285 11.3332 3.4129 11.3332 4.53301 11.3332Z" stroke="#130442" stroke-opacity="0.48" stroke-width="1.33333" stroke-linecap="round" stroke-linejoin="round"/>
</svg>
