<svg width="24" height="24" viewBox="0 0 24 24" fill="none" xmlns="http://www.w3.org/2000/svg">
<rect x="0.25" y="0.25" width="23.5" height="23.5" rx="11.75" fill="#00D1FF" fill-opacity="0.04"/>
<rect x="0.25" y="0.25" width="23.5" height="23.5" rx="11.75" stroke="#00D1FF" stroke-width="0.5"/>
<g clip-path="url(#clip0_1996_14927)">
<path d="M5 9.75966C5 8.58355 5 7.99549 5.22889 7.54628C5.43022 7.15114 5.75148 6.82988 6.14662 6.62854C6.59583 6.39966 7.18389 6.39966 8.36 6.39966H15.64C16.8161 6.39966 17.4042 6.39966 17.8534 6.62854C18.2485 6.82988 18.5698 7.15114 18.7711 7.54628C19 7.99549 19 8.58355 19 9.75966V14.2397C19 15.4158 19 16.0038 18.7711 16.453C18.5698 16.8482 18.2485 17.1694 17.8534 17.3708C17.4042 17.5997 16.8161 17.5997 15.64 17.5997H8.36C7.18389 17.5997 6.59583 17.5997 6.14662 17.3708C5.75148 17.1694 5.43022 16.8482 5.22889 16.453C5 16.0038 5 15.4158 5 14.2397V9.75966Z" fill="#00D1FF"/>
<path d="M5 8.49966L10.7154 12.5005C11.1783 12.8244 11.4097 12.9864 11.6614 13.0492C11.8837 13.1046 12.1163 13.1046 12.3386 13.0492C12.5903 12.9864 12.8217 12.8244 13.2846 12.5005L19 8.49966M8.36 17.5997H15.64C16.8161 17.5997 17.4042 17.5997 17.8534 17.3708C18.2485 17.1694 18.5698 16.8482 18.7711 16.453C19 16.0038 19 15.4158 19 14.2397V9.75966C19 8.58355 19 7.99549 18.7711 7.54628C18.5698 7.15114 18.2485 6.82988 17.8534 6.62854C17.4042 6.39966 16.8161 6.39966 15.64 6.39966H8.36C7.18389 6.39966 6.59583 6.39966 6.14662 6.62854C5.75148 6.82988 5.43022 7.15114 5.22889 7.54628C5 7.99549 5 8.58355 5 9.75966V14.2397C5 15.4158 5 16.0038 5.22889 16.453C5.43022 16.8482 5.75148 17.1694 6.14662 17.3708C6.59583 17.5997 7.18389 17.5997 8.36 17.5997Z" stroke="#FAF9FA" stroke-width="1.16667" stroke-linecap="round" stroke-linejoin="round"/>
</g>
<defs>
<clipPath id="clip0_1996_14927">
<rect width="14" height="14" fill="white" transform="translate(5 5)"/>
</clipPath>
</defs>
</svg>
