<svg width="19" height="18" viewBox="0 0 19 18" fill="none" xmlns="http://www.w3.org/2000/svg">
<path fill-rule="evenodd" clip-rule="evenodd" d="M2.06509 8.46512C2.90915 7.12863 5.42155 3.75 9.2503 3.75C13.0791 3.75 15.5915 7.12863 16.4355 8.46512C16.5377 8.62685 16.5887 8.70771 16.6173 8.83244C16.6388 8.92613 16.6388 9.07387 16.6173 9.16756C16.5887 9.29229 16.5377 9.37315 16.4355 9.53488C15.5915 10.8714 13.0791 14.25 9.2503 14.25C5.42155 14.25 2.90915 10.8714 2.06509 9.53488C1.96295 9.37315 1.91188 9.29229 1.88329 9.16756C1.86182 9.07387 1.86182 8.92613 1.88329 8.83244C1.91188 8.70771 1.96295 8.62685 2.06509 8.46512ZM9.2503 11.25C10.4929 11.25 11.5003 10.2426 11.5003 9C11.5003 7.75736 10.4929 6.75 9.2503 6.75C8.00766 6.75 7.0003 7.75736 7.0003 9C7.0003 10.2426 8.00766 11.25 9.2503 11.25Z" fill="#746E87"/>
</svg>
