<svg width="12" height="9" viewBox="0 0 12 9" fill="none" xmlns="http://www.w3.org/2000/svg">
<path fill-rule="evenodd" clip-rule="evenodd" d="M0.411738 4.08406C1.06823 3.04457 3.02232 0.416748 6.00024 0.416748C8.97815 0.416748 10.9322 3.04457 11.5887 4.08406C11.6682 4.20985 11.7079 4.27275 11.7301 4.36976C11.7468 4.44262 11.7468 4.55754 11.7301 4.63041C11.7079 4.72742 11.6682 4.79031 11.5887 4.9161C10.9322 5.95559 8.97815 8.58342 6.00024 8.58342C3.02232 8.58342 1.06823 5.95559 0.411738 4.9161C0.332296 4.79031 0.292575 4.72742 0.270339 4.63041C0.253637 4.55754 0.253637 4.44262 0.270339 4.36976C0.292575 4.27275 0.332296 4.20985 0.411738 4.08406ZM6.00024 6.25008C6.96673 6.25008 7.75024 5.46658 7.75024 4.50008C7.75024 3.53358 6.96673 2.75008 6.00024 2.75008C5.03374 2.75008 4.25024 3.53358 4.25024 4.50008C4.25024 5.46658 5.03374 6.25008 6.00024 6.25008Z" fill="#746E87"/>
</svg>
