<svg width="21" height="20" viewBox="0 0 21 20" fill="none" xmlns="http://www.w3.org/2000/svg">
<path d="M2.36597 10.0001H19.0326M2.36597 10.0001C2.36597 14.6025 6.09693 18.3334 10.6993 18.3334M2.36597 10.0001C2.36597 5.39771 6.09693 1.66675 10.6993 1.66675M19.0326 10.0001C19.0326 14.6025 15.3017 18.3334 10.6993 18.3334M19.0326 10.0001C19.0326 5.39771 15.3017 1.66675 10.6993 1.66675M10.6993 1.66675C12.7837 3.94871 13.9683 6.91011 14.0326 10.0001C13.9683 13.0901 12.7837 16.0515 10.6993 18.3334M10.6993 1.66675C8.6149 3.94871 7.43034 6.91011 7.36597 10.0001C7.43034 13.0901 8.6149 16.0515 10.6993 18.3334" stroke="white" stroke-width="1.66667" stroke-linecap="round" stroke-linejoin="round"/>
</svg>
