<svg width="15" height="14" viewBox="0 0 15 14" fill="none" xmlns="http://www.w3.org/2000/svg">
<path d="M5.05 6.41667H9.95C10.9301 6.41667 11.4201 6.41667 11.7945 6.60741C12.1238 6.77518 12.3915 7.0429 12.5593 7.37218C12.75 7.74653 12.75 8.23657 12.75 9.21667V9.45C12.75 10.4301 12.75 10.9201 12.5593 11.2945C12.3915 11.6238 12.1238 11.8915 11.7945 12.0593C11.4201 12.25 10.9301 12.25 9.95 12.25H5.05C4.06991 12.25 3.57986 12.25 3.20552 12.0593C2.87623 11.8915 2.60852 11.6238 2.44074 11.2945C2.25 10.9201 2.25 10.4301 2.25 9.45V9.21667C2.25 8.23657 2.25 7.74653 2.44074 7.37218C2.60852 7.0429 2.87623 6.77518 3.20552 6.60741C3.57986 6.41667 4.06991 6.41667 5.05 6.41667Z" fill="white"/>
<path d="M10.4167 6.41667V4.66667C10.4167 3.05584 9.11083 1.75 7.5 1.75C5.88917 1.75 4.58333 3.05584 4.58333 4.66667V6.41667M5.05 12.25H9.95C10.9301 12.25 11.4201 12.25 11.7945 12.0593C12.1238 11.8915 12.3915 11.6238 12.5593 11.2945C12.75 10.9201 12.75 10.4301 12.75 9.45V9.21667C12.75 8.23657 12.75 7.74653 12.5593 7.37218C12.3915 7.0429 12.1238 6.77518 11.7945 6.60741C11.4201 6.41667 10.9301 6.41667 9.95 6.41667H5.05C4.06991 6.41667 3.57986 6.41667 3.20552 6.60741C2.87623 6.77518 2.60852 7.0429 2.44074 7.37218C2.25 7.74653 2.25 8.23657 2.25 9.21667V9.45C2.25 10.4301 2.25 10.9201 2.44074 11.2945C2.60852 11.6238 2.87623 11.8915 3.20552 12.0593C3.57986 12.25 4.06991 12.25 5.05 12.25Z" stroke="white" stroke-width="1.16667" stroke-linecap="round" stroke-linejoin="round"/>
</svg>
