<svg width="158" height="48" viewBox="0 0 158 48" fill="none" xmlns="http://www.w3.org/2000/svg">
<g clip-path="url(#clip0_48_457)">
<path d="M10.0212 15.4617V29.5682C10.0212 30.8076 10.3655 31.7716 11.054 32.4601C11.7056 33.1839 12.6007 33.5449 13.7393 33.5433H19.0595V38.6569H13.5328C10.7098 38.6569 8.50563 37.8306 6.92032 36.1782C5.26784 34.5945 4.4416 32.3912 4.4416 29.5682V15.4617H0.000564575V10.4514H4.4416V3.02277H10.0212V10.4514H19.0595V15.4617H10.0212Z" fill="white"/>
<path d="M22.2612 3.02277H27.7854V8.33791H22.2612V3.02277ZM22.2612 10.3531H27.7854V38.6518H22.2612V10.3531Z" fill="white"/>
<path d="M38.0126 21.5578L48.8596 10.3506H56.2453L45.4513 21.5049L57.7416 38.6519H50.9755L41.6803 25.3791L38.0126 29.0443V38.6519H32.4355V3.01776H38.0126V21.5578Z" fill="white"/>
<path d="M67.2585 15.4617V29.5682C67.2585 30.8076 67.6028 31.7716 68.2913 32.4601C68.9429 33.1839 69.838 33.5449 70.9766 33.5433H76.2968V38.6569H70.7574C67.9344 38.6569 65.7303 37.8306 64.145 36.1782C62.4925 34.5945 61.6663 32.3912 61.6663 29.5682V15.4617H57.2252V10.4514H61.6663V3.02277H67.2585V10.4514H76.2968V15.4617H67.2585Z" fill="white"/>
<path d="M106.135 10.3506V38.5965H101.013V34.6693C98.57 37.635 95.6093 39.1179 92.1313 39.1179C88.1009 39.1179 84.8984 37.792 82.5238 35.1403C80.1828 32.487 79.0123 28.9746 79.0123 24.6033C79.0123 19.9565 80.1492 16.3417 82.423 13.7589C84.7002 11.1357 87.922 9.82416 92.0885 9.82416C95.4976 9.82416 98.3374 10.9779 100.608 13.2853V10.3506H106.135ZM100.608 24.2053C100.608 21.2379 99.8681 18.9078 98.3886 17.215C96.8772 15.5575 94.8804 14.7287 92.3983 14.7287C89.8793 14.7287 87.9481 15.5919 86.6046 17.3183C85.2611 19.0799 84.5894 21.4788 84.5894 24.5151C84.5894 27.4859 85.2947 29.837 86.7054 31.5684C88.0824 33.33 90.0456 34.2108 92.5948 34.2108C95.1138 34.2108 97.0762 33.3821 98.4818 31.7246C99.8924 30.0351 100.598 27.6706 100.598 24.631L100.608 24.2053Z" fill="white"/>
<path d="M134.025 13.7059C136.331 16.3241 137.484 19.8708 137.484 24.3463C137.484 28.9259 136.313 32.5365 133.972 35.1781C131.665 37.7962 128.411 39.1053 124.211 39.1053C120.871 39.1053 118.1 38.0372 115.898 35.9011V47.9924H110.372V10.3481H115.483V14.2752C117.893 11.281 120.94 9.78299 124.624 9.78131C128.584 9.78131 131.718 11.0895 134.025 13.7059ZM129.791 31.5759C131.201 29.8546 131.907 27.4791 131.907 24.4496C131.907 21.4536 131.235 19.0773 129.892 17.3207C128.548 15.5641 126.617 14.6867 124.098 14.6884C121.579 14.6884 119.6 15.497 118.16 17.1142C116.713 18.6642 115.957 20.9717 115.893 24.0365V24.6561C115.893 27.8234 116.582 30.1988 117.959 31.7825C119.373 33.4014 121.353 34.2108 123.899 34.2108C126.418 34.2108 128.381 33.3325 129.788 31.5759" fill="white"/>
<path d="M141.162 6.12624L137.872 9.10876C141.51 13.1202 143.526 18.3423 143.526 23.7581C143.526 29.174 141.51 34.396 137.872 38.4075L141.162 41.39C145.542 36.5618 147.968 30.276 147.968 23.7569C147.968 17.2377 145.542 10.952 141.162 6.12372" fill="#8445DF"/>
<path d="M147.923 -6.10352e-05L144.63 2.97994C149.98 8.57646 152.965 16.0201 152.965 23.7619C152.965 31.5037 149.98 38.9473 144.63 44.5438L147.92 47.5238C154.009 41.1111 157.405 32.6056 157.405 23.7624C157.405 14.9192 154.011 6.41331 147.923 -6.10352e-05Z" fill="#8445DF"/>
</g>
<defs>
<clipPath id="clip0_48_457">
<rect width="157.399" height="48" fill="white"/>
</clipPath>
</defs>
</svg>
