<svg width="19" height="20" viewBox="0 0 19 20" fill="none" xmlns="http://www.w3.org/2000/svg">
<path d="M9.89079 5.70959C10.7654 6.7987 11.1944 8.28385 11.1944 10.1485C11.1944 12.0627 10.7489 13.5644 9.87429 14.67C8.9997 15.7591 7.77857 16.3037 6.19441 16.3037C4.94028 16.3037 3.88418 15.8581 3.05909 14.967V20H0.963379V5.36306V4.30695H2.48153H2.89408V4.73599V5.36306V5.94061C3.80167 4.68649 4.95679 4.07593 6.34293 4.07593C7.82808 4.07593 9.0162 4.62048 9.89079 5.70959ZM8.29013 13.1518C8.81818 12.4423 9.08221 11.4522 9.08221 10.1815C9.08221 8.92742 8.83468 7.93732 8.32313 7.21124C7.81158 6.48517 7.0855 6.12213 6.14491 6.12213C5.20431 6.12213 4.44523 6.45217 3.90068 7.12873C3.35612 7.7723 3.07559 8.7294 3.04259 10.0165V10.2806C3.04259 11.6007 3.30662 12.5908 3.81817 13.2509C4.34622 13.9274 5.1053 14.2575 6.0624 14.2575C7.0195 14.241 7.76207 13.8779 8.29013 13.1518Z" fill="#130442"/>
<path d="M12.5804 2.55762L11.3428 3.79524C12.6629 5.41241 13.4715 7.55762 13.4715 9.90086C13.4715 12.2441 12.6629 14.3893 11.3428 16.0065L12.5804 17.2441C14.1811 15.2969 15.1547 12.7226 15.1547 9.90086C15.1382 7.07907 14.1811 4.48831 12.5804 2.55762Z" fill="#8445DF"/>
<path d="M15.1219 0L13.8843 1.23762C15.8315 3.49835 17.0196 6.53466 17.0196 9.8845C17.0196 13.2343 15.815 16.2871 13.8843 18.5314L15.1219 19.769C17.3331 17.1947 18.7028 13.6964 18.7028 9.868C18.7028 6.07261 17.3496 2.57426 15.1219 0Z" fill="#8445DF"/>
</svg>
