<svg width="24" height="24" viewBox="0 0 24 24" fill="none" xmlns="http://www.w3.org/2000/svg">
<rect x="0.25" y="0.25" width="23.5" height="23.5" rx="11.75" fill="#00D1FF" fill-opacity="0.04"/>
<rect x="0.25" y="0.25" width="23.5" height="23.5" rx="11.75" stroke="#00D1FF" stroke-width="0.5"/>
<path d="M9.88849 10.1643C10.2945 11.0099 10.848 11.8025 11.5489 12.5034C12.2498 13.2043 13.0423 13.7578 13.8879 14.1638C13.9607 14.1987 13.9971 14.2162 14.0431 14.2296C14.2066 14.2773 14.4074 14.243 14.5459 14.1438C14.5849 14.1159 14.6182 14.0826 14.6849 14.0159C14.8889 13.812 14.9908 13.71 15.0934 13.6433C15.4801 13.3919 15.9786 13.3919 16.3652 13.6433C16.4678 13.71 16.5698 13.812 16.7737 14.0159L16.8874 14.1296C17.1974 14.4396 17.3524 14.5946 17.4366 14.7611C17.604 15.0921 17.604 15.4831 17.4366 15.8142C17.3524 15.9807 17.1974 16.1357 16.8874 16.4457L16.7954 16.5376C16.4865 16.8466 16.332 17.0011 16.122 17.119C15.8889 17.25 15.527 17.3441 15.2597 17.3433C15.0188 17.3426 14.8542 17.2958 14.5249 17.2024C12.7554 16.7002 11.0857 15.7525 9.69272 14.3596C8.29973 12.9666 7.35212 11.2969 6.84989 9.52738C6.75643 9.19812 6.70971 9.03349 6.70899 8.79261C6.70819 8.52531 6.80232 8.16336 6.93323 7.93031C7.05121 7.72029 7.20568 7.56582 7.51463 7.25687L7.60659 7.16492C7.91659 6.85491 8.0716 6.69991 8.23807 6.61571C8.56915 6.44825 8.96014 6.44825 9.29121 6.61571C9.45768 6.69991 9.61269 6.85491 9.9227 7.16492L10.0364 7.27859C10.2403 7.48253 10.3423 7.5845 10.4089 7.68703C10.6604 8.07372 10.6604 8.57223 10.4089 8.95891C10.3423 9.06145 10.2403 9.16342 10.0364 9.36735C9.96969 9.43404 9.93635 9.46738 9.90844 9.50635C9.80927 9.64485 9.77502 9.84567 9.8227 10.0092C9.83611 10.0552 9.85357 10.0916 9.88849 10.1643Z" fill="#00D1FF" stroke="#00D1FF" stroke-width="1.16667" stroke-linecap="round" stroke-linejoin="round"/>
</svg>
