<svg width="16" height="16" viewBox="0 0 16 16" fill="none" xmlns="http://www.w3.org/2000/svg">
<g clip-path="url(#clip0_1458_82611)">
<path d="M5.58685 5.90217C6.05085 6.86859 6.68337 7.77435 7.48443 8.5754C8.28548 9.37645 9.19124 10.009 10.1577 10.473C10.2408 10.5129 10.2823 10.5328 10.3349 10.5482C10.5218 10.6027 10.7513 10.5635 10.9096 10.4502C10.9542 10.4183 10.9923 10.3802 11.0685 10.304C11.3016 10.0709 11.4181 9.95437 11.5353 9.87818C11.9772 9.59085 12.5469 9.59085 12.9889 9.87818C13.106 9.95437 13.2226 10.0709 13.4556 10.304L13.5856 10.4339C13.9398 10.7882 14.117 10.9653 14.2132 11.1556C14.4046 11.534 14.4046 11.9808 14.2132 12.3592C14.117 12.5494 13.9399 12.7266 13.5856 13.0809L13.4805 13.186C13.1274 13.539 12.9508 13.7156 12.7108 13.8504C12.4445 14 12.0308 14.1076 11.7253 14.1067C11.45 14.1059 11.2619 14.0525 10.8856 13.9457C8.86333 13.3717 6.95509 12.2887 5.36311 10.6967C3.77112 9.10473 2.68814 7.19649 2.11416 5.17423C2.00735 4.79793 1.95395 4.60978 1.95313 4.33448C1.95222 4.029 2.0598 3.61534 2.20941 3.34901C2.34424 3.10898 2.52078 2.93244 2.87386 2.57936L2.97895 2.47427C3.33325 2.11998 3.5104 1.94283 3.70065 1.8466C4.07903 1.65522 4.52587 1.65522 4.90424 1.8466C5.0945 1.94283 5.27164 2.11998 5.62594 2.47427L5.75585 2.60418C5.98892 2.83726 6.10546 2.95379 6.18165 3.07098C6.46898 3.5129 6.46898 4.08262 6.18165 4.52455C6.10546 4.64174 5.98892 4.75827 5.75585 4.99134C5.67964 5.06755 5.64154 5.10565 5.60965 5.15019C5.4963 5.30848 5.45717 5.53799 5.51165 5.72489C5.52698 5.77748 5.54694 5.81905 5.58685 5.90217Z" stroke="#130442" stroke-opacity="0.48" stroke-width="1.33333" stroke-linecap="round" stroke-linejoin="round"/>
</g>
<defs>
<clipPath id="clip0_1458_82611">
<rect width="16" height="16" fill="white"/>
</clipPath>
</defs>
</svg>
