<svg width="21" height="20" viewBox="0 0 21 20" fill="none" xmlns="http://www.w3.org/2000/svg">
<path d="M11.008 9.68341C10.983 9.68341 10.9663 9.68341 10.9413 9.68341C10.8997 9.67508 10.8413 9.67508 10.7913 9.68341C8.37468 9.60841 6.54968 7.70841 6.54968 5.36675C6.54968 2.98341 8.49135 1.04175 10.8747 1.04175C13.258 1.04175 15.1997 2.98341 15.1997 5.36675C15.1913 7.70841 13.358 9.60841 11.033 9.68341C11.0247 9.68341 11.0163 9.68341 11.008 9.68341ZM10.8747 2.29175C9.18302 2.29175 7.79968 3.67508 7.79968 5.36675C7.79968 7.03341 9.09968 8.37508 10.758 8.43341C10.7997 8.42508 10.9163 8.42508 11.0247 8.43341C12.658 8.35841 13.9413 7.01675 13.9497 5.36675C13.9497 3.67508 12.5663 2.29175 10.8747 2.29175Z" fill="#130442"/>
<path d="M11.0163 18.7916C9.38301 18.7916 7.74134 18.3749 6.49967 17.5416C5.34134 16.7749 4.70801 15.7249 4.70801 14.5833C4.70801 13.4416 5.34134 12.3833 6.49967 11.6083C8.99967 9.94992 13.0497 9.94992 15.533 11.6083C16.683 12.3749 17.3247 13.4249 17.3247 14.5666C17.3247 15.7083 16.6913 16.7666 15.533 17.5416C14.283 18.3749 12.6497 18.7916 11.0163 18.7916ZM7.19134 12.6583C6.39134 13.1916 5.95801 13.8749 5.95801 14.5916C5.95801 15.2999 6.39967 15.9833 7.19134 16.5083C9.26634 17.8999 12.7663 17.8999 14.8413 16.5083C15.6413 15.9749 16.0747 15.2916 16.0747 14.5749C16.0747 13.8666 15.633 13.1833 14.8413 12.6583C12.7663 11.2749 9.26634 11.2749 7.19134 12.6583Z" fill="#130442"/>
</svg>
