<svg width="33" height="32" viewBox="0 0 33 32" fill="none" xmlns="http://www.w3.org/2000/svg">
<g opacity="0.48">
<path d="M8.91667 8.66667H8.93M23.5833 8.66667H23.5967M8.91667 23.3333H8.93M17.5833 17.3333H17.5967M23.5833 23.3333H23.5967M22.9167 28H28.25V22.6667M18.9167 22V28M28.25 18.6667H22.25M21.05 13.3333H26.1167C26.8634 13.3333 27.2368 13.3333 27.522 13.188C27.7729 13.0602 27.9768 12.8562 28.1047 12.6053C28.25 12.3201 28.25 11.9467 28.25 11.2V6.13333C28.25 5.3866 28.25 5.01323 28.1047 4.72801C27.9768 4.47713 27.7729 4.27316 27.522 4.14532C27.2368 4 26.8634 4 26.1167 4H21.05C20.3033 4 19.9299 4 19.6447 4.14532C19.3938 4.27316 19.1898 4.47713 19.062 4.72801C18.9167 5.01323 18.9167 5.3866 18.9167 6.13333V11.2C18.9167 11.9467 18.9167 12.3201 19.062 12.6053C19.1898 12.8562 19.3938 13.0602 19.6447 13.188C19.9299 13.3333 20.3033 13.3333 21.05 13.3333ZM6.38333 13.3333H11.45C12.1967 13.3333 12.5701 13.3333 12.8553 13.188C13.1062 13.0602 13.3102 12.8562 13.438 12.6053C13.5833 12.3201 13.5833 11.9467 13.5833 11.2V6.13333C13.5833 5.3866 13.5833 5.01323 13.438 4.72801C13.3102 4.47713 13.1062 4.27316 12.8553 4.14532C12.5701 4 12.1967 4 11.45 4H6.38333C5.6366 4 5.26323 4 4.97801 4.14532C4.72713 4.27316 4.52316 4.47713 4.39532 4.72801C4.25 5.01323 4.25 5.3866 4.25 6.13333V11.2C4.25 11.9467 4.25 12.3201 4.39532 12.6053C4.52316 12.8562 4.72713 13.0602 4.97801 13.188C5.26323 13.3333 5.6366 13.3333 6.38333 13.3333ZM6.38333 28H11.45C12.1967 28 12.5701 28 12.8553 27.8547C13.1062 27.7268 13.3102 27.5229 13.438 27.272C13.5833 26.9868 13.5833 26.6134 13.5833 25.8667V20.8C13.5833 20.0533 13.5833 19.6799 13.438 19.3947C13.3102 19.1438 13.1062 18.9398 12.8553 18.812C12.5701 18.6667 12.1967 18.6667 11.45 18.6667H6.38333C5.6366 18.6667 5.26323 18.6667 4.97801 18.812C4.72713 18.9398 4.52316 19.1438 4.39532 19.3947C4.25 19.6799 4.25 20.0533 4.25 20.8V25.8667C4.25 26.6134 4.25 26.9868 4.39532 27.272C4.52316 27.5229 4.72713 27.7268 4.97801 27.8547C5.26323 28 5.6366 28 6.38333 28Z" stroke="#130442" stroke-width="2.4" stroke-linecap="round" stroke-linejoin="round"/>
</g>
</svg>
