<svg width="20" height="20" viewBox="0 0 20 20" fill="none" xmlns="http://www.w3.org/2000/svg">
<path d="M1.66675 7.5V5.41667C1.66675 3.34167 3.34175 1.66667 5.41675 1.66667H7.50008" stroke="white" stroke-width="1.5" stroke-linecap="round" stroke-linejoin="round"/>
<path d="M12.5 1.66667H14.5833C16.6583 1.66667 18.3333 3.34167 18.3333 5.41667V7.5" stroke="white" stroke-width="1.5" stroke-linecap="round" stroke-linejoin="round"/>
<path d="M18.3333 13.3333V14.5833C18.3333 16.6583 16.6583 18.3333 14.5833 18.3333H13.3333" stroke="white" stroke-width="1.5" stroke-linecap="round" stroke-linejoin="round"/>
<path d="M7.50008 18.3333H5.41675C3.34175 18.3333 1.66675 16.6583 1.66675 14.5833V12.5" stroke="white" stroke-width="1.5" stroke-linecap="round" stroke-linejoin="round"/>
<path d="M14.1666 7.91667V12.0833C14.1666 13.75 13.3333 14.5833 11.6666 14.5833H8.33325C6.66659 14.5833 5.83325 13.75 5.83325 12.0833V7.91667C5.83325 6.25 6.66659 5.41667 8.33325 5.41667H11.6666C13.3333 5.41667 14.1666 6.25 14.1666 7.91667Z" stroke="white" stroke-width="1.5" stroke-linecap="round" stroke-linejoin="round"/>
<path d="M15.8334 10H4.16675" stroke="white" stroke-width="1.5" stroke-linecap="round" stroke-linejoin="round"/>
</svg>
