<svg width="21" height="20" viewBox="0 0 21 20" fill="none" xmlns="http://www.w3.org/2000/svg">
<path d="M7.95424 16.1426L8.44128 17.2379C8.58606 17.564 8.82234 17.841 9.12147 18.0355C9.42059 18.2299 9.7697 18.3334 10.1265 18.3333C10.4832 18.3334 10.8323 18.2299 11.1315 18.0355C11.4306 17.841 11.6669 17.564 11.8116 17.2379L12.2987 16.1426C12.4721 15.7539 12.7637 15.4298 13.132 15.2166C13.5027 15.0028 13.9315 14.9117 14.357 14.9564L15.5487 15.0833C15.9034 15.1208 16.2614 15.0546 16.5793 14.8927C16.8971 14.7308 17.1612 14.4802 17.3394 14.1713C17.5179 13.8625 17.6029 13.5085 17.5842 13.1524C17.5655 12.7962 17.4438 12.4531 17.2339 12.1648L16.5283 11.1953C16.2771 10.8476 16.1428 10.429 16.145 9.99996C16.1449 9.57212 16.2804 9.15525 16.532 8.80922L17.2376 7.83977C17.4475 7.55142 17.5692 7.20835 17.5879 6.85219C17.6066 6.49602 17.5216 6.14208 17.3431 5.83329C17.1649 5.52432 16.9008 5.2737 16.583 5.11182C16.2651 4.94993 15.9071 4.88373 15.5524 4.92126L14.3607 5.04811C13.9352 5.0928 13.5064 5.00173 13.1357 4.78792C12.7667 4.5735 12.475 4.24776 12.3024 3.85737L11.8116 2.762C11.6669 2.43594 11.4306 2.15889 11.1315 1.96446C10.8323 1.77003 10.4832 1.66657 10.1265 1.66663C9.7697 1.66657 9.42059 1.77003 9.12147 1.96446C8.82234 2.15889 8.58606 2.43594 8.44128 2.762L7.95424 3.85737C7.78168 4.24776 7.48997 4.5735 7.12091 4.78792C6.75026 5.00173 6.32147 5.0928 5.89591 5.04811L4.70054 4.92126C4.34581 4.88373 3.98782 4.94993 3.66997 5.11182C3.35211 5.2737 3.08805 5.52432 2.9098 5.83329C2.73132 6.14208 2.64628 6.49602 2.66502 6.85219C2.68376 7.20835 2.80546 7.55142 3.01535 7.83977L3.72091 8.80922C3.97253 9.15525 4.10802 9.57212 4.10795 9.99996C4.10802 10.4278 3.97253 10.8447 3.72091 11.1907L3.01535 12.1601C2.80546 12.4485 2.68376 12.7916 2.66502 13.1477C2.64628 13.5039 2.73132 13.8578 2.9098 14.1666C3.08823 14.4754 3.35232 14.7259 3.67013 14.8878C3.98794 15.0496 4.34584 15.1159 4.70054 15.0787L5.89221 14.9518C6.31776 14.9071 6.74655 14.9982 7.11721 15.212C7.48765 15.4258 7.78071 15.7516 7.95424 16.1426Z" stroke="#130442" stroke-width="1.25" stroke-linecap="round" stroke-linejoin="round"/>
<path d="M10.125 12.5C11.5057 12.5 12.625 11.3807 12.625 9.99996C12.625 8.61925 11.5057 7.49996 10.125 7.49996C8.74426 7.49996 7.62498 8.61925 7.62498 9.99996C7.62498 11.3807 8.74426 12.5 10.125 12.5Z" stroke="#130442" stroke-width="1.25" stroke-linecap="round" stroke-linejoin="round"/>
</svg>
