<svg width="16" height="16" viewBox="0 0 16 16" fill="none" xmlns="http://www.w3.org/2000/svg">
<path d="M10.6665 5.33333C10.6665 6.04058 10.3855 6.71885 9.88543 7.21895C9.38533 7.71905 8.70705 8 7.99981 8C7.29256 8 6.61429 7.71905 6.11419 7.21895C5.61409 6.71885 5.33314 6.04058 5.33314 5.33333M2.42195 4.93426L1.95529 10.5343C1.85503 11.7373 1.80491 12.3388 2.00826 12.8028C2.18693 13.2105 2.49649 13.5469 2.88793 13.7588C3.33345 14 3.93705 14 5.14423 14H10.8554C12.0626 14 12.6662 14 13.1117 13.7588C13.5031 13.5469 13.8127 13.2105 13.9914 12.8028C14.1947 12.3388 14.1446 11.7373 14.0443 10.5343L13.5777 4.93426C13.4914 3.89917 13.4483 3.38162 13.2191 2.9899C13.0172 2.64496 12.7166 2.3684 12.3561 2.1959C11.9467 2 11.4274 2 10.3887 2L5.6109 2C4.57222 2 4.05288 2 3.64348 2.1959C3.28297 2.3684 2.98241 2.64496 2.78056 2.9899C2.55134 3.38162 2.50821 3.89917 2.42195 4.93426Z" stroke="white" stroke-width="1.25" stroke-linecap="round" stroke-linejoin="round"/>
</svg>
