<svg width="17" height="16" viewBox="0 0 17 16" fill="none" xmlns="http://www.w3.org/2000/svg">
<g clip-path="url(#clip0_1996_14882)">
<path d="M8.67727 8.23525L8.6773 7.22384C8.6773 6.94981 8.90023 6.72691 9.17423 6.72691C9.44826 6.72691 9.6712 6.95006 9.6712 7.22434V8.82487C9.6712 9.08375 9.88108 9.29362 10.14 9.29362C10.3988 9.29362 10.6087 9.08375 10.6087 8.82487V7.81303C10.6087 7.53928 10.8314 7.31656 11.1052 7.31656C11.3795 7.31656 11.6027 7.53975 11.6027 7.81403V9.70938C11.6027 9.96825 11.8125 10.1781 12.0714 10.1781C12.3303 10.1781 12.5402 9.96825 12.5402 9.70938V8.40269C12.5402 8.12894 12.7629 7.90622 13.0366 7.90622C13.311 7.90622 13.5341 8.12941 13.5341 8.40369V10.6905C13.5341 11.8848 13.126 13.0583 12.3851 13.995C12.3196 14.0778 12.284 14.1802 12.284 14.2858V15.0624H6.70086V14.2858C6.70086 14.1597 6.65008 14.0389 6.55999 13.9508C5.63999 13.0503 5.11239 11.7956 5.11249 10.5082L5.11255 9.53216C5.11255 9.25797 5.33539 9.03491 5.6093 9.03491H6.27736C6.40168 9.03489 6.5209 8.98549 6.60881 8.89758C6.69671 8.80967 6.7461 8.69045 6.74611 8.56613L6.74599 3.59713C6.74599 3.32313 6.96892 3.10022 7.24289 3.10022C7.51677 3.10022 7.73961 3.32291 7.73961 3.59669L7.7397 8.2351C7.7397 8.49397 7.94958 8.70385 8.20846 8.70385C8.46739 8.70397 8.67727 8.49413 8.67727 8.23525Z" fill="#746E87"/>
<path d="M9.8322 2.16284C9.61036 0.93475 8.53427 0 7.24324 0C5.9522 0 4.87611 0.93475 4.65427 2.16284C4.61376 2.52881 4.6161 2.73435 4.65421 3.10034C4.78289 3.80819 5.19852 4.44037 5.80855 4.83781L5.81014 3.53409C5.6398 3.26389 5.5493 2.95104 5.54911 2.63163C5.54911 1.6975 6.30908 0.937531 7.2432 0.937531C8.17736 0.937531 8.93733 1.6975 8.93733 2.63163C8.93736 2.95997 8.84436 3.27197 8.67567 3.53809L8.6772 4.83825C9.29514 4.43659 9.70673 3.81019 9.83326 3.10041C9.87661 2.74425 9.88087 2.53996 9.8322 2.16284Z" fill="#746E87"/>
<path d="M7.24295 2.16287C8.01405 2.16287 8.6447 2.77456 8.67567 3.53809C8.84436 3.27197 8.93736 2.95997 8.93733 2.63163C8.93733 1.6975 8.17736 0.937531 7.2432 0.937531C6.30908 0.937531 5.54911 1.6975 5.54911 2.63163C5.5493 2.95104 5.6398 3.26389 5.81014 3.53409C5.84339 2.77238 6.47324 2.16287 7.24295 2.16287Z" fill="#746E87"/>
</g>
<defs>
<clipPath id="clip0_1996_14882">
<rect width="16" height="16" fill="white" transform="translate(0.5)"/>
</clipPath>
</defs>
</svg>
