<svg width="12" height="13" viewBox="0 0 12 13" fill="none" xmlns="http://www.w3.org/2000/svg">
<path d="M10.5348 3.115C9.72983 3.035 8.92483 2.975 8.11483 2.93V2.925L8.00483 2.275C7.92983 1.815 7.81983 1.125 6.64983 1.125H5.33983C4.17483 1.125 4.06483 1.785 3.98483 2.27L3.87983 2.91C3.41483 2.94 2.94983 2.97 2.48483 3.015L1.46483 3.115C1.25483 3.135 1.10483 3.32 1.12483 3.525C1.14483 3.73 1.32483 3.88 1.53483 3.86L2.55483 3.76C5.17483 3.5 7.81484 3.6 10.4648 3.865C10.4798 3.865 10.4898 3.865 10.5048 3.865C10.6948 3.865 10.8598 3.72 10.8798 3.525C10.8948 3.32 10.7448 3.135 10.5348 3.115Z" fill="#746E87"/>
<path d="M9.61487 4.57C9.49487 4.445 9.32987 4.375 9.15987 4.375H2.83987C2.66987 4.375 2.49987 4.445 2.38487 4.57C2.26987 4.695 2.20487 4.865 2.21487 5.04L2.52487 10.17C2.57987 10.93 2.64987 11.88 4.39487 11.88H7.60487C9.34987 11.88 9.41988 10.935 9.47487 10.17L9.78487 5.045C9.79487 4.865 9.72987 4.695 9.61487 4.57ZM6.82987 9.375H5.16487C4.95987 9.375 4.78987 9.205 4.78987 9C4.78987 8.795 4.95987 8.625 5.16487 8.625H6.82987C7.03487 8.625 7.20487 8.795 7.20487 9C7.20487 9.205 7.03487 9.375 6.82987 9.375ZM7.24987 7.375H4.74987C4.54487 7.375 4.37487 7.205 4.37487 7C4.37487 6.795 4.54487 6.625 4.74987 6.625H7.24987C7.45487 6.625 7.62487 6.795 7.62487 7C7.62487 7.205 7.45487 7.375 7.24987 7.375Z" fill="#746E87"/>
</svg>
